<svg height="512" viewBox="0 0 64 64" width="512" xmlns="http://www.w3.org/2000/svg"><g id="coin-ethereum-money-business-currency"><path d="m61 32a29 29 0 0 1 -29 29h-.05a29 29 0 0 1 .05-58h.05a29 29 0 0 1 28.95 29z" fill="#ffc477"/><path d="m61 32a29 29 0 0 1 -29 29h-.05q-1.23 0-2.43-.12a28.987 28.987 0 0 0 -.04-57.76q1.245-.12 2.52-.12h.05a29 29 0 0 1 28.95 29z" fill="#ffa733"/><circle cx="32" cy="32" fill="#ffeb99" r="23"/><path d="m55 32a23.029 23.029 0 0 1 -23 23c-.67 0-1.34-.03-2-.09a23 23 0 0 0 0-45.82c.66-.06 1.33-.09 2-.09a23.029 23.029 0 0 1 23 23z" fill="#ffd422"/><path d="m32 13 11 22-11-6z" fill="#c6c5ca"/><path d="m43 39-11 12v-6z" fill="#c6c5ca"/><path d="m43 35-11 6v-12z" fill="#898890"/><path d="m32 45v6l-11-12z" fill="#e0e0e2"/><path d="m32 29v12l-11-6z" fill="#c6c5ca"/><path d="m32 13v16l-11 6z" fill="#e0e0e2"/><path d="m32 2a30 30 0 1 0 30 30 30.037 30.037 0 0 0 -30-30zm0 58a28 28 0 1 1 28-28 28.031 28.031 0 0 1 -28 28z"/><path d="m32 8a24 24 0 1 0 24 24 24.032 24.032 0 0 0 -24-24zm0 46a22 22 0 1 1 22-22 22.026 22.026 0 0 1 -22 22z"/><path d="m31 5h2v2h-2z"/><path d="m24.271 5.886h2v2h-2z" transform="matrix(.966 -.259 .259 .966 -.921 6.773)"/><path d="m18 8.483h2v2h-2z" transform="matrix(.866 -.5 .5 .866 -2.196 10.771)"/><path d="m12.615 12.615h2v2h-2z" transform="matrix(.707 -.707 .707 .707 -5.64 13.615)"/><path d="m8.483 18h2v2h-2z" transform="matrix(.5 -.866 .866 .5 -11.713 17.712)"/><path d="m5.886 24.27h2v2h-2z" transform="matrix(.259 -.966 .966 .259 -19.306 25.383)"/><path d="m5 31h2v2h-2z"/><path d="m5.886 37.73h2v2h-2z" transform="matrix(.966 -.259 .259 .966 -9.789 3.102)"/><path d="m8.483 44h2v2h-2z" transform="matrix(.866 -.5 .5 .866 -21.226 10.768)"/><path d="m12.615 49.385h2v2h-2z" transform="matrix(.707 -.707 .707 .707 -31.64 24.385)"/><path d="m18 53.517h2v2h-2z" transform="matrix(.5 -.866 .866 .5 -37.714 43.718)"/><path d="m24.27 56.114h2v2h-2z" transform="matrix(.259 -.966 .966 .259 -36.438 66.741)"/><path d="m31 57h2v2h-2z"/><path d="m37.73 56.114h2v2h-2z" transform="matrix(.966 -.259 .259 .966 -13.46 11.967)"/><path d="m44 53.517h2v2h-2z" transform="matrix(.866 -.5 .5 .866 -21.23 29.806)"/><path d="m49.385 49.385h2v2h-2z" transform="matrix(.707 -.707 .707 .707 -20.87 50.385)"/><path d="m53.517 44h2v2h-2z" transform="matrix(.5 -.866 .866 .5 -11.713 69.711)"/><path d="m56.114 37.729h2v2h-2z" transform="matrix(.259 -.966 .966 .259 4.925 83.877)"/><path d="m57 31h2v2h-2z"/><path d="m56.114 24.271h2v2h-2z" transform="matrix(.966 -.259 .259 .966 -4.594 15.643)"/><path d="m53.517 18h2v2h-2z" transform="matrix(.866 -.5 .5 .866 -2.197 29.799)"/><path d="m49.385 12.615h2v2h-2z" transform="matrix(.707 -.707 .707 .707 5.13 39.615)"/><path d="m44 8.483h2v2h-2z" transform="matrix(.5 -.866 .866 .5 14.291 43.716)"/><path d="m37.729 5.886h2v2h-2z" transform="matrix(.259 -.966 .966 .259 22.054 42.514)"/><path d="m4 8h2v-2h2v-2h-2v-2h-2v2h-2v2h2z"/><path d="m6 56h-2v2h-2v2h2v2h2v-2h2v-2h-2z"/><path d="m60 4v-2h-2v2h-2v2h2v2h2v-2h2v-2z"/><path d="m60 56h-2v2h-2v2h2v2h2v-2h2v-2h-2z"/><path d="m43.89 34.55-11-22a1.039 1.039 0 0 0 -1.78 0l-11 22a1 1 0 0 0 .41 1.33l11 6a1.02 1.02 0 0 0 .96 0l11-6a1 1 0 0 0 .41-1.33zm-12.89 4.77-7.91-4.32 7.91-4.32zm0-10.91-7.68 4.18 7.68-15.35zm2-11.17 7.68 15.35-7.68-4.18zm0 22.08v-8.64l7.91 4.32z"/><path d="m43.79 38.38a1.015 1.015 0 0 0 -1.27-.26l-10.52 5.74-10.52-5.74a1 1 0 0 0 -1.22 1.56l11 12a1.016 1.016 0 0 0 1.48 0l11-12a1.013 1.013 0 0 0 .05-1.3zm-12.79 10.05-5.2-5.67 5.2 2.83zm2 0v-2.84l5.2-2.83z"/></g></svg>