<svg height="480pt" viewBox="-16 0 480 480" width="480pt" xmlns="http://www.w3.org/2000/svg" xmlns:xlink="http://www.w3.org/1999/xlink"><linearGradient id="a"><stop offset="0" stop-color="#fff200"/><stop offset="1" stop-color="#cd118c"/></linearGradient><linearGradient id="b" gradientUnits="userSpaceOnUse" x1="-89.04" x2="430.96" xlink:href="#a" y1="442.792" y2="-29.208"/><linearGradient id="c" gradientUnits="userSpaceOnUse" x1="-81.072" x2="438.928" xlink:href="#a" y1="451.56" y2="-20.44"/><linearGradient id="d" gradientUnits="userSpaceOnUse" x1="-227.952" x2="292.048" xlink:href="#a" y1="289.744" y2="-182.256"/><linearGradient id="e" gradientUnits="userSpaceOnUse" x1="-63.984" x2="456.016" xlink:href="#a" y1="478.384" y2="6.384"/><linearGradient id="f" gradientUnits="userSpaceOnUse" x1="-209.816" x2="310.184" xlink:href="#a" y1="309.728" y2="-162.272"/><linearGradient id="g" gradientUnits="userSpaceOnUse" x1="39.704" x2="559.704" xlink:href="#a" y1="592.624" y2="120.624"/><linearGradient id="h" gradientUnits="userSpaceOnUse" x1="-106.128" x2="413.872" xlink:href="#a" y1="423.96" y2="-48.04"/><linearGradient id="i" gradientUnits="userSpaceOnUse" x1="-110.72" x2="409.28" xlink:href="#a" y1="418.904" y2="-53.096"/><linearGradient id="j" gradientUnits="userSpaceOnUse" x1="-67.352" x2="452.648" xlink:href="#a" y1="466.68" y2="-5.32"/><linearGradient id="k" gradientUnits="userSpaceOnUse" x1="7.28" x2="527.28" xlink:href="#a" y1="548.904" y2="76.904"/><path d="m95.847656 167.007812c-23.054687 22.707032-30.15625 57.070313-17.996094 87.058594 12.160157 29.988282 41.1875 49.695313 73.546876 49.933594h.601562c44.183594.160156 80.128906-35.527344 80.289062-79.710938.15625-44.183593-35.53125-80.128906-79.714843-80.289062-21.199219-.09375-41.582031 8.171875-56.726563 23.007812zm120.152344 57.472657c-.265625 35.28125-29.035156 63.695312-64.316406 63.519531-35.285156-.175781-63.769532-28.875-63.679688-64.160156.085938-35.28125 28.710938-63.839844 63.996094-63.839844h.496094c35.339844.273438 63.769531 29.140625 63.503906 64.480469zm0 0" fill="url(#b)"/><path d="m288 408h-272v-344h91.054688l5.785156 11.574219c1.355468 2.714843 4.128906 4.425781 7.160156 4.425781h64c3.03125 0 5.804688-1.710938 7.160156-4.425781l5.785156-11.574219h91.054688v104h16v-128c-.289062-21.972656-18.027344-39.710938-40-40h-224c-21.972656.289062-39.710938 18.027344-40 40v400c.289062 21.972656 18.027344 39.710938 40 40h224c21.972656-.289062 39.710938-18.027344 40-40v-160h-16zm-248-392h224c13.113281.332031 23.667969 10.886719 24 24v8h-96c-3.03125 0-5.804688 1.710938-7.160156 4.425781l-5.785156 11.574219h-54.109376l-5.746093-11.574219c-1.359375-2.726562-4.152344-4.441406-7.199219-4.425781h-96v-8c.332031-13.113281 10.886719-23.667969 24-24zm224 448h-224c-13.113281-.332031-23.667969-10.886719-24-24v-16h272v16c-.332031 13.113281-10.886719 23.667969-24 24zm0 0" fill="url(#c)"/><path d="m48 24h16v16h-16zm0 0" fill="url(#d)"/><path d="m24 368v24c0 4.417969 3.582031 8 8 8h24v-16h-16v-16zm0 0" fill="url(#e)"/><path d="m56 72h-24c-4.417969 0-8 3.582031-8 8v24h16v-16h16zm0 0" fill="url(#f)"/><path d="m272 400c4.417969 0 8-3.582031 8-8v-24h-16v16h-16v16zm0 0" fill="url(#g)"/><path d="m280 104v-24c0-4.417969-3.582031-8-8-8h-24v16h16v16zm0 0" fill="url(#h)"/><path d="m96 216h16v16h-16zm0 0" fill="url(#i)"/><path d="m192 216h16v16h-16zm0 0" fill="url(#j)"/><path d="m144 176v8c-13.253906 0-24 10.746094-24 24s10.746094 24 24 24v16c-4.417969 0-8-3.582031-8-8h-16c0 13.253906 10.746094 24 24 24v8h16v-8c13.253906 0 24-10.746094 24-24s-10.746094-24-24-24v-16c4.417969 0 8 3.582031 8 8h16c0-13.253906-10.746094-24-24-24v-8zm24 64c0 4.417969-3.582031 8-8 8v-16c4.417969 0 8 3.582031 8 8zm-24-24c-4.417969 0-8-3.582031-8-8s3.582031-8 8-8zm0 0" fill="url(#b)"/><path d="m440 192h-88v-32c0-3.078125-1.761719-5.878906-4.535156-7.214844-2.773438-1.332031-6.0625-.957031-8.464844.96875l-80 64c-1.898438 1.515625-3.003906 3.816406-3.003906 6.246094s1.105468 4.730469 3.003906 6.246094l80 64c2.402344 1.925781 5.691406 2.300781 8.464844.96875 2.773437-1.335938 4.535156-4.136719 4.535156-7.214844v-32h88c4.417969 0 8-3.582031 8-8v-48c0-4.417969-3.582031-8-8-8zm-8 48h-88c-4.417969 0-8 3.582031-8 8v23.351562l-59.199219-47.351562 59.199219-47.351562v23.351562c0 4.417969 3.582031 8 8 8h88zm0 0" fill="url(#k)"/></svg>