<svg height="480pt" viewBox="0 0 480 480" width="480pt" xmlns="http://www.w3.org/2000/svg" xmlns:xlink="http://www.w3.org/1999/xlink"><linearGradient id="a"><stop offset="0" stop-color="#fff200"/><stop offset="1" stop-color="#cd118c"/></linearGradient><linearGradient id="b" gradientUnits="userSpaceOnUse" x1="161.624" x2="601.624" xlink:href="#a" y1="570.504" y2="106.504"/><linearGradient id="c" gradientUnits="userSpaceOnUse" x1="-64.24" x2="375.76" xlink:href="#a" y1="356.328" y2="-107.672"/><linearGradient id="d" gradientUnits="userSpaceOnUse" x1="-50.368" x2="389.632" xlink:href="#a" y1="369.48" y2="-94.52"/><linearGradient id="e" gradientUnits="userSpaceOnUse" x1="-33.52" x2="406.48" xlink:href="#a" y1="385.456" y2="-78.544"/><linearGradient id="f" gradientUnits="userSpaceOnUse" x1="-16.672" x2="423.328" xlink:href="#a" y1="401.432" y2="-62.568"/><linearGradient id="g" gradientUnits="userSpaceOnUse" x1=".176" x2="440.176" xlink:href="#a" y1="417.408" y2="-46.592"/><linearGradient id="h" gradientUnits="userSpaceOnUse" x1="17.032" x2="457.032" xlink:href="#a" y1="433.392" y2="-30.608"/><linearGradient id="i" gradientUnits="userSpaceOnUse" x1="33.88" x2="473.88" xlink:href="#a" y1="449.368" y2="-14.632"/><linearGradient id="j" gradientUnits="userSpaceOnUse" x1="50.728" x2="490.728" xlink:href="#a" y1="465.344" y2="1.344"/><linearGradient id="k" gradientUnits="userSpaceOnUse" x1="67.576" x2="507.576" xlink:href="#a" y1="481.32" y2="17.32"/><linearGradient id="l" gradientUnits="userSpaceOnUse" x1="84.424" x2="524.424" xlink:href="#a" y1="497.296" y2="33.296"/><linearGradient id="m" gradientUnits="userSpaceOnUse" x1="101.272" x2="541.272" xlink:href="#a" y1="513.272" y2="49.272"/><linearGradient id="n" gradientUnits="userSpaceOnUse" x1="118.12" x2="558.12" xlink:href="#a" y1="529.256" y2="65.256"/><linearGradient id="o" gradientUnits="userSpaceOnUse" x1="134.968" x2="574.968" xlink:href="#a" y1="545.232" y2="81.232"/><linearGradient id="p" gradientUnits="userSpaceOnUse" x1="28.536" x2="468.536" xlink:href="#a" y1="444.304" y2="-19.696"/><linearGradient id="q" gradientUnits="userSpaceOnUse" x1="53.488" x2="493.488" xlink:href="#a" y1="467.96" y2="3.96"/><linearGradient id="r" gradientUnits="userSpaceOnUse" x1="70.336" x2="510.336" xlink:href="#a" y1="483.936" y2="19.936"/><linearGradient id="s" gradientUnits="userSpaceOnUse" x1="87.184" x2="527.184" xlink:href="#a" y1="499.912" y2="35.912"/><linearGradient id="t" gradientUnits="userSpaceOnUse" x1="104.032" x2="544.032" xlink:href="#a" y1="515.896" y2="51.896"/><linearGradient id="u" gradientUnits="userSpaceOnUse" x1="120.88" x2="560.88" xlink:href="#a" y1="531.872" y2="67.872"/><linearGradient id="v" gradientUnits="userSpaceOnUse" x1="137.728" x2="577.728" xlink:href="#a" y1="547.848" y2="83.848"/><linearGradient id="w" gradientUnits="userSpaceOnUse" x1="154.576" x2="594.576" xlink:href="#a" y1="563.824" y2="99.824"/><linearGradient id="x" gradientUnits="userSpaceOnUse" x1="171.432" x2="611.432" xlink:href="#a" y1="579.8" y2="115.8"/><linearGradient id="y" gradientUnits="userSpaceOnUse" x1="188.28" x2="628.28" xlink:href="#a" y1="595.784" y2="131.784"/><linearGradient id="z" gradientUnits="userSpaceOnUse" x1="205.128" x2="645.128" xlink:href="#a" y1="611.76" y2="147.76"/><linearGradient id="A" gradientUnits="userSpaceOnUse" x1="221.976" x2="661.976" xlink:href="#a" y1="627.736" y2="163.736"/><linearGradient id="B" gradientUnits="userSpaceOnUse" x1="238.824" x2="678.824" xlink:href="#a" y1="643.712" y2="179.712"/><linearGradient id="C" gradientUnits="userSpaceOnUse" x1="-43.472" x2="396.528" xlink:href="#a" y1="376.024" y2="-87.976"/><linearGradient id="D" gradientUnits="userSpaceOnUse" x1="-27.488" x2="412.512" xlink:href="#a" y1="391.176" y2="-72.824"/><linearGradient id="E" gradientUnits="userSpaceOnUse" x1="-11.512" x2="428.488" xlink:href="#a" y1="406.32" y2="-57.68"/><linearGradient id="F" gradientUnits="userSpaceOnUse" x1="4.464" x2="444.464" xlink:href="#a" y1="421.472" y2="-42.528"/><linearGradient id="G" gradientUnits="userSpaceOnUse" x1="-22.048" x2="417.952" xlink:href="#a" y1="396.336" y2="-67.664"/><linearGradient id="H" gradientUnits="userSpaceOnUse" x1="-84.792" x2="355.208" xlink:href="#a" y1="336.832" y2="-127.168"/><linearGradient id="I" gradientUnits="userSpaceOnUse" x1="-85.224" x2="354.776" xlink:href="#a" y1="336.424" y2="-127.576"/><linearGradient id="J" gradientUnits="userSpaceOnUse" x1="-68.816" x2="371.184" xlink:href="#a" y1="351.984" y2="-112.016"/><linearGradient id="K" gradientUnits="userSpaceOnUse" x1="-68.376" x2="371.624" xlink:href="#a" y1="352.4" y2="-111.6"/><linearGradient id="L" gradientUnits="userSpaceOnUse" x1="24.728" x2="464.728" xlink:href="#a" y1="440.688" y2="-23.312"/><linearGradient id="M" gradientUnits="userSpaceOnUse" x1="24.288" x2="464.288" xlink:href="#a" y1="440.272" y2="-23.728"/><linearGradient id="N" gradientUnits="userSpaceOnUse" x1="40.704" x2="480.704" xlink:href="#a" y1="455.84" y2="-8.16"/><linearGradient id="O" gradientUnits="userSpaceOnUse" x1="41.136" x2="481.136" xlink:href="#a" y1="456.256" y2="-7.744"/><linearGradient id="P" gradientUnits="userSpaceOnUse" x1="46.296" x2="486.296" xlink:href="#a" y1="461.144" y2="-2.856"/><path d="m384 304c-17.671875 0-32 14.328125-32 32s14.328125 32 32 32 32-14.328125 32-32-14.328125-32-32-32zm0 48c-8.835938 0-16-7.164062-16-16s7.164062-16 16-16 16 7.164062 16 16-7.164062 16-16 16zm0 0" fill="url(#b)"/><path d="m32 232v32h16v-24h8v-16h-16c-4.417969 0-8 3.582031-8 8zm0 0" fill="url(#c)"/><path d="m72 224h16v16h-16zm0 0" fill="url(#d)"/><path d="m104 224h16v16h-16zm0 0" fill="url(#e)"/><path d="m136 224h16v16h-16zm0 0" fill="url(#f)"/><path d="m168 224h16v16h-16zm0 0" fill="url(#g)"/><path d="m200 224h16v16h-16zm0 0" fill="url(#h)"/><path d="m232 224h16v16h-16zm0 0" fill="url(#i)"/><path d="m264 224h16v16h-16zm0 0" fill="url(#j)"/><path d="m296 224h16v16h-16zm0 0" fill="url(#k)"/><path d="m328 224h16v16h-16zm0 0" fill="url(#l)"/><path d="m360 224h16v16h-16zm0 0" fill="url(#m)"/><path d="m392 224h16v16h-16zm0 0" fill="url(#n)"/><path d="m424 224h16v16h-16zm0 0" fill="url(#o)"/><path d="m48 408h-16v32c0 4.417969 3.582031 8 8 8h16v-16h-8zm0 0" fill="url(#p)"/><path d="m72 432h16v16h-16zm0 0" fill="url(#q)"/><path d="m104 432h16v16h-16zm0 0" fill="url(#r)"/><path d="m136 432h16v16h-16zm0 0" fill="url(#s)"/><path d="m168 432h16v16h-16zm0 0" fill="url(#t)"/><path d="m200 432h16v16h-16zm0 0" fill="url(#u)"/><path d="m232 432h16v16h-16zm0 0" fill="url(#v)"/><path d="m264 432h16v16h-16zm0 0" fill="url(#w)"/><path d="m296 432h16v16h-16zm0 0" fill="url(#x)"/><path d="m328 432h16v16h-16zm0 0" fill="url(#y)"/><path d="m360 432h16v16h-16zm0 0" fill="url(#z)"/><path d="m392 432h16v16h-16zm0 0" fill="url(#A)"/><path d="m424 432h16v16h-16zm0 0" fill="url(#B)"/><path d="m32 280h16v16h-16zm0 0" fill="url(#C)"/><path d="m32 312h16v16h-16zm0 0" fill="url(#D)"/><path d="m32 344h16v16h-16zm0 0" fill="url(#E)"/><path d="m32 376h16v16h-16zm0 0" fill="url(#F)"/><path d="m240 56c-35.347656 0-64 28.652344-64 64s28.652344 64 64 64 64-28.652344 64-64c-.039062-35.328125-28.671875-63.960938-64-64zm-48 64c.042969-23.398438 16.933594-43.359375 40-47.28125v7.28125c-13.253906 0-24 10.746094-24 24s10.746094 24 24 24h16c4.417969 0 8 3.582031 8 8s-3.582031 8-8 8h-16c-4.417969 0-8-3.582031-8-8h-16c0 13.253906 10.746094 24 24 24v7.28125c-23.066406-3.921875-39.957031-23.882812-40-47.28125zm56 47.28125v-7.28125c13.253906 0 24-10.746094 24-24s-10.746094-24-24-24h-16c-4.417969 0-8-3.582031-8-8s3.582031-8 8-8h16c4.417969 0 8 3.582031 8 8h16c0-13.253906-10.746094-24-24-24v-7.28125c23.085938 3.882812 39.992188 23.871094 39.992188 47.28125s-16.90625 43.398438-39.992188 47.28125zm0 0" fill="url(#G)"/><path d="m128 96h16v16h-16zm0 0" fill="url(#H)"/><path d="m112 112h16v16h-16zm0 0" fill="url(#I)"/><path d="m128 128h16v16h-16zm0 0" fill="url(#J)"/><path d="m144 112h16v16h-16zm0 0" fill="url(#K)"/><path d="m336 96h16v16h-16zm0 0" fill="url(#L)"/><path d="m320 112h16v16h-16zm0 0" fill="url(#M)"/><path d="m336 128h16v16h-16zm0 0" fill="url(#N)"/><path d="m352 112h16v16h-16zm0 0" fill="url(#O)"/><path d="m472 192h-24v-184c0-4.417969-3.582031-8-8-8h-400c-4.417969 0-8 3.582031-8 8v184h-24c-4.417969 0-8 3.582031-8 8v272c0 4.417969 3.582031 8 8 8h464c4.417969 0 8-3.582031 8-8v-272c0-4.417969-3.582031-8-8-8zm-424-176h384v176h-60.511719c6.269531-14.585938 20.632813-24.027344 36.511719-24 4.417969 0 8-3.582031 8-8v-80c0-4.417969-3.582031-8-8-8-22.082031-.027344-39.972656-17.917969-40-40 0-4.417969-3.582031-8-8-8h-240c-4.417969 0-8 3.582031-8 8-.027344 22.082031-17.917969 39.972656-40 40-4.417969 0-8 3.582031-8 8v80c0 4.417969 3.582031 8 8 8 15.878906-.027344 30.242188 9.414062 36.511719 24h-60.511719zm77.503906 176c-6.105468-20.941406-23.90625-36.371094-45.503906-39.441406v-65.125c24.558594-3.585938 43.847656-22.875 47.433594-47.433594h225.132812c3.585938 24.558594 22.875 43.847656 47.433594 47.433594v65.125c-21.597656 3.070312-39.398438 18.5-45.503906 39.441406zm-109.503906 272v-256h448v48h-86.542969c-19.980469.078125-38.96875 8.714844-52.160156 23.71875-13.894531 15.433594-21.496094 35.515625-21.296875 56.28125 0 44.113281 32.953125 80 73.457031 80h86.542969v48zm448-64h-16v-128h16zm-86.542969 0c-31.679687 0-57.457031-28.710938-57.457031-64-.191406-16.78125 5.921875-33.023438 17.136719-45.511719 10.171875-11.652343 24.851562-18.382812 40.320312-18.488281h54.542969v128zm0 0" fill="url(#P)"/></svg>