<svg id="Capa_1" enable-background="new 0 0 512 512" height="512" viewBox="0 0 512 512" width="512" xmlns="http://www.w3.org/2000/svg"><g><g><path d="m85.283 262.061h341.435v32.325h-341.435z" fill="#62a4fb"/></g><g><path d="m138.398 294.386h235.205c-9.449-12.469-20.831-23.392-33.698-32.325h-167.809c-12.867 8.933-24.25 19.856-33.698 32.325z" fill="#5392f9"/></g><g><g><path d="m431.768 405.504h-351.536c-8.926 0-16.163-7.236-16.163-16.163v-78.793c0-8.926 7.236-16.163 16.163-16.163h351.537c8.926 0 16.163 7.236 16.163 16.163v78.793c-.001 8.927-7.237 16.163-16.164 16.163z" fill="#e6f7fe"/></g><g><path d="m108.516 383.28c0 7.552.573 14.973 1.673 22.224h291.621c1.1-7.25 1.673-14.671 1.673-22.224 0-33.357-11.138-64.159-29.881-88.894h-235.204c-18.744 24.736-29.882 55.537-29.882 88.894z" fill="#d3effd"/></g><g><path d="m431.768 294.386h-26.264c8.926 0 16.163 7.236 16.163 16.163v78.793c0 8.926-7.236 16.163-16.163 16.163h26.264c8.926 0 16.163-7.236 16.163-16.163v-78.793c0-8.927-7.236-16.163-16.163-16.163z" fill="#d3effd"/></g></g><g><path d="m85.283 118.618h341.435v32.325h-341.435z" fill="#62a4fb"/></g><g><g><path d="m431.768 118.618h-351.536c-8.926 0-16.163-7.236-16.163-16.163v-78.792c0-8.926 7.236-16.163 16.163-16.163h351.537c8.926 0 16.163 7.236 16.163 16.163v78.793c-.001 8.926-7.237 16.162-16.164 16.162z" fill="#e6f7fe"/></g><g><path d="m431.768 7.5h-26.264c8.926 0 16.163 7.236 16.163 16.163v78.793c0 8.926-7.236 16.163-16.163 16.163h26.264c8.926 0 16.163-7.236 16.163-16.163v-78.793c0-8.927-7.236-16.163-16.163-16.163z" fill="#d3effd"/></g><g><circle cx="112.557" cy="63.059" fill="#df646e" r="16.163"/></g><g><circle cx="177.207" cy="63.059" fill="#b3e59f" r="16.163"/></g><g><circle cx="241.858" cy="63.059" fill="#b3e59f" r="16.163"/></g></g><g><g><path d="m431.768 262.061h-351.536c-8.926 0-16.163-7.236-16.163-16.163v-78.793c0-8.926 7.236-16.163 16.163-16.163h351.537c8.926 0 16.163 7.236 16.163 16.163v78.793c-.001 8.927-7.237 16.163-16.164 16.163z" fill="#e6f7fe"/></g><g><path d="m256 235.797c-31.15 0-60.07 9.716-83.904 26.264h167.809c-23.835-16.548-52.755-26.264-83.905-26.264z" fill="#d3effd"/></g><g><path d="m431.768 150.943h-26.264c8.926 0 16.163 7.236 16.163 16.163v78.793c0 8.926-7.236 16.163-16.163 16.163h26.264c8.926 0 16.163-7.236 16.163-16.163v-78.793c0-8.927-7.236-16.163-16.163-16.163z" fill="#d3effd"/></g><g><circle cx="112.557" cy="206.502" fill="#df646e" r="16.163"/></g><g><circle cx="177.207" cy="206.502" fill="#b3e59f" r="16.163"/></g><g><circle cx="241.858" cy="206.502" fill="#b3e59f" r="16.163"/></g></g><g><circle cx="256" cy="383.28" fill="#b3e59f" r="121.22"/></g><g><path d="m326.987 285.019c14.44 19.953 22.958 44.474 22.958 70.987 0 66.948-54.272 121.22-121.22 121.22-26.513 0-51.033-8.518-70.987-22.958 22.023 30.43 57.827 50.232 98.262 50.232 66.948 0 121.22-54.272 121.22-121.22 0-40.434-19.803-76.238-50.233-98.261z" fill="#95d6a4"/></g><g><g><path d="m304.488 455.002h-96.976c-7.811 0-14.142-6.332-14.142-14.142v-69.701c0-7.811 6.332-14.142 14.142-14.142h96.976c7.811 0 14.142 6.332 14.142 14.142v69.701c0 7.81-6.332 14.142-14.142 14.142z" fill="#ffe07d"/></g><g><path d="m304.488 357.016h-24.244c7.811 0 14.142 6.332 14.142 14.142v69.701c0 7.811-6.332 14.142-14.142 14.142h24.244c7.811 0 14.142-6.332 14.142-14.142v-69.701c0-7.81-6.332-14.142-14.142-14.142z" fill="#ffd064"/></g></g><g><path d="m455.43 102.46v-78.8c0-13.046-10.615-23.66-23.66-23.66h-351.54c-13.045 0-23.66 10.614-23.66 23.66v78.8c0 12.219 9.312 22.305 21.212 23.534v17.573c-11.9 1.23-21.212 11.319-21.212 23.543v78.79c0 12.219 9.312 22.304 21.212 23.533v17.583c-11.9 1.229-21.212 11.314-21.212 23.534v78.79c0 13.046 10.614 23.66 23.66 23.66h50.519c13.451 56.695 64.5 99 125.25 99s111.799-42.305 125.25-99h50.519c13.046 0 23.66-10.614 23.66-23.66v-78.79c0-12.219-9.312-22.305-21.212-23.534v-17.583c11.9-1.229 21.212-11.313 21.212-23.533v-78.79c0-12.225-9.312-22.314-21.212-23.543v-17.573c11.902-1.23 21.214-11.315 21.214-23.534zm-383.86 0v-78.8c0-4.775 3.885-8.66 8.66-8.66h351.54c4.775 0 8.66 3.885 8.66 8.66v78.8c0 4.775-3.885 8.66-8.66 8.66h-35.74c-4.143 0-7.5 3.357-7.5 7.5s3.357 7.5 7.5 7.5h23.188v17.32h-326.436v-17.32h268.248c4.143 0 7.5-3.357 7.5-7.5s-3.357-7.5-7.5-7.5h-280.8c-4.775 0-8.66-3.885-8.66-8.66zm8.66 295.54c-4.775 0-8.66-3.885-8.66-8.66v-78.79c0-4.775 3.885-8.66 8.66-8.66h76.132c-18.164 22.196-29.082 50.539-29.082 81.391 0 4.978.294 9.887.847 14.72h-47.897zm360.2-87.45v78.79c0 4.775-3.885 8.66-8.66 8.66h-47.896c.553-4.832.847-9.742.847-14.72 0-8.28-.796-16.58-2.367-24.67-.788-4.065-4.712-6.723-8.792-5.933-4.066.789-6.723 4.726-5.933 8.792 1.388 7.149 2.092 14.487 2.092 21.811-.001 62.705-51.016 113.72-113.721 113.72s-113.72-51.015-113.72-113.72c0-62.706 51.015-113.721 113.72-113.721 42.445 0 81.062 23.371 100.776 60.992 1.924 3.67 6.457 5.085 10.125 3.161 3.669-1.922 5.084-6.455 3.161-10.124-4.085-7.795-8.888-15.049-14.303-21.699h76.01c4.776.001 8.661 3.885 8.661 8.661zm-99.057-23.66c-7.62-6.759-15.999-12.573-24.96-17.33h102.805v17.33zm99.057-119.78v78.79c0 4.774-3.885 8.659-8.66 8.659h-293.37c-4.143 0-7.5 3.357-7.5 7.5s3.357 7.5 7.5 7.5h57.38c-9.012 4.792-17.389 10.619-24.973 17.33h-78.025v-17.33h10.618c4.143 0 7.5-3.357 7.5-7.5s-3.357-7.5-7.5-7.5h-23.17c-4.775 0-8.66-3.885-8.66-8.659v-78.79c0-4.78 3.885-8.67 8.66-8.67h351.54c4.775 0 8.66 3.89 8.66 8.67z"/><path d="m290.346 54.396h6c4.143 0 7.5-3.357 7.5-7.5s-3.357-7.5-7.5-7.5h-6c-4.143 0-7.5 3.357-7.5 7.5s3.357 7.5 7.5 7.5z"/><path d="m327.075 54.396h10.536c4.143 0 7.5-3.357 7.5-7.5s-3.357-7.5-7.5-7.5h-10.536c-4.143 0-7.5 3.357-7.5 7.5s3.358 7.5 7.5 7.5z"/><path d="m368.341 54.396h10.535c4.143 0 7.5-3.357 7.5-7.5s-3.357-7.5-7.5-7.5h-10.535c-4.143 0-7.5 3.357-7.5 7.5s3.357 7.5 7.5 7.5z"/><path d="m409.605 54.396h6c4.143 0 7.5-3.357 7.5-7.5s-3.357-7.5-7.5-7.5h-6c-4.143 0-7.5 3.357-7.5 7.5s3.358 7.5 7.5 7.5z"/><path d="m409.605 86.722h6c4.143 0 7.5-3.357 7.5-7.5s-3.357-7.5-7.5-7.5h-6c-4.143 0-7.5 3.357-7.5 7.5s3.358 7.5 7.5 7.5z"/><path d="m327.075 86.722h10.535c4.143 0 7.5-3.357 7.5-7.5s-3.357-7.5-7.5-7.5h-10.535c-4.143 0-7.5 3.357-7.5 7.5s3.358 7.5 7.5 7.5z"/><path d="m368.34 86.722h10.536c4.143 0 7.5-3.357 7.5-7.5s-3.357-7.5-7.5-7.5h-10.536c-4.143 0-7.5 3.357-7.5 7.5s3.357 7.5 7.5 7.5z"/><path d="m290.346 86.722h6c4.143 0 7.5-3.357 7.5-7.5s-3.357-7.5-7.5-7.5h-6c-4.143 0-7.5 3.357-7.5 7.5s3.357 7.5 7.5 7.5z"/><path d="m112.557 86.722c13.048 0 23.663-10.615 23.663-23.663 0-13.047-10.615-23.662-23.663-23.662-13.047 0-23.662 10.615-23.662 23.662s10.615 23.663 23.662 23.663zm0-32.326c4.776 0 8.663 3.886 8.663 8.662s-3.887 8.663-8.663 8.663-8.662-3.887-8.662-8.663 3.885-8.662 8.662-8.662z"/><path d="m177.207 86.722c13.048 0 23.663-10.615 23.663-23.663 0-13.047-10.615-23.662-23.663-23.662-13.047 0-23.662 10.615-23.662 23.662s10.615 23.663 23.662 23.663zm0-32.326c4.776 0 8.663 3.886 8.663 8.662s-3.887 8.663-8.663 8.663-8.662-3.887-8.662-8.663 3.886-8.662 8.662-8.662z"/><path d="m241.857 86.722c13.048 0 23.663-10.615 23.663-23.663 0-13.047-10.615-23.662-23.663-23.662-13.047 0-23.662 10.615-23.662 23.662s10.616 23.663 23.662 23.663zm0-32.326c4.776 0 8.663 3.886 8.663 8.662s-3.887 8.663-8.663 8.663-8.662-3.887-8.662-8.663 3.886-8.662 8.662-8.662z"/><path d="m296.346 182.84h-6c-4.143 0-7.5 3.357-7.5 7.5s3.357 7.5 7.5 7.5h6c4.143 0 7.5-3.357 7.5-7.5s-3.358-7.5-7.5-7.5z"/><path d="m337.611 182.84h-10.536c-4.143 0-7.5 3.357-7.5 7.5s3.357 7.5 7.5 7.5h10.536c4.143 0 7.5-3.357 7.5-7.5s-3.357-7.5-7.5-7.5z"/><path d="m378.876 182.84h-10.535c-4.143 0-7.5 3.357-7.5 7.5s3.357 7.5 7.5 7.5h10.535c4.143 0 7.5-3.357 7.5-7.5s-3.357-7.5-7.5-7.5z"/><path d="m415.605 182.84h-6c-4.143 0-7.5 3.357-7.5 7.5s3.357 7.5 7.5 7.5h6c4.143 0 7.5-3.357 7.5-7.5s-3.357-7.5-7.5-7.5z"/><path d="m415.605 215.165h-6c-4.143 0-7.5 3.357-7.5 7.5s3.357 7.5 7.5 7.5h6c4.143 0 7.5-3.357 7.5-7.5s-3.357-7.5-7.5-7.5z"/><path d="m378.876 215.165h-10.536c-4.143 0-7.5 3.357-7.5 7.5s3.357 7.5 7.5 7.5h10.536c4.143 0 7.5-3.357 7.5-7.5s-3.357-7.5-7.5-7.5z"/><path d="m337.61 215.165h-10.535c-4.143 0-7.5 3.357-7.5 7.5s3.357 7.5 7.5 7.5h10.535c4.143 0 7.5-3.357 7.5-7.5s-3.357-7.5-7.5-7.5z"/><path d="m296.346 215.165h-6c-4.143 0-7.5 3.357-7.5 7.5s3.357 7.5 7.5 7.5h6c4.143 0 7.5-3.357 7.5-7.5s-3.358-7.5-7.5-7.5z"/><path d="m112.557 182.84c-13.047 0-23.662 10.615-23.662 23.662 0 13.048 10.615 23.663 23.662 23.663 13.048 0 23.663-10.615 23.663-23.663 0-13.047-10.616-23.662-23.663-23.662zm0 32.325c-4.776 0-8.662-3.887-8.662-8.663s3.886-8.662 8.662-8.662 8.663 3.886 8.663 8.662-3.887 8.663-8.663 8.663z"/><path d="m177.207 182.84c-13.047 0-23.662 10.615-23.662 23.662 0 13.048 10.615 23.663 23.662 23.663 13.048 0 23.663-10.615 23.663-23.663 0-13.047-10.615-23.662-23.663-23.662zm0 32.325c-4.776 0-8.662-3.887-8.662-8.663s3.886-8.662 8.662-8.662 8.663 3.886 8.663 8.662-3.887 8.663-8.663 8.663z"/><path d="m241.857 182.84c-13.047 0-23.662 10.615-23.662 23.662 0 13.048 10.615 23.663 23.662 23.663 13.048 0 23.663-10.615 23.663-23.663.001-13.047-10.615-23.662-23.663-23.662zm0 32.325c-4.776 0-8.662-3.887-8.662-8.663s3.886-8.662 8.662-8.662 8.663 3.886 8.663 8.662-3.886 8.663-8.663 8.663z"/><path d="m304.488 349.517h-3.612v-17.755c0-24.745-20.131-44.876-44.876-44.876s-44.876 20.131-44.876 44.876v17.755h-3.612c-11.934 0-21.642 9.708-21.642 21.642v69.701c0 11.934 9.708 21.643 21.642 21.643h96.977c11.934 0 21.642-9.709 21.642-21.643v-69.701c-.001-11.934-9.709-21.642-21.643-21.642zm-78.364-17.755c0-16.474 13.402-29.876 29.876-29.876s29.876 13.402 29.876 29.876v17.755h-59.752zm85.006 109.097c0 3.663-2.979 6.643-6.642 6.643h-96.977c-3.662 0-6.642-2.979-6.642-6.643v-69.701c0-3.662 2.979-6.642 6.642-6.642h96.977c3.662 0 6.642 2.979 6.642 6.642z"/><path d="m256 381.26c-7.253 0-13.132 5.879-13.132 13.132 0 4.462 2.23 8.398 5.632 10.771v17.513c0 4.143 3.357 7.5 7.5 7.5s7.5-3.357 7.5-7.5v-17.513c3.402-2.373 5.632-6.309 5.632-10.771 0-7.252-5.879-13.132-13.132-13.132z"/></g></g></svg>