<svg id="Flat" height="512" viewBox="0 0 512 512" width="512" xmlns="http://www.w3.org/2000/svg"><path d="m24 24h352v464h-352z" fill="#e9eef2"/><path d="m56 184h288v64h-288z" fill="#dadcde"/><path d="m56 184h64v64h-64z" fill="#d0d2d4"/><path d="m56 280h288v64h-288z" fill="#dadcde"/><path d="m56 280h64v64h-64z" fill="#9aa3a8"/><path d="m56 376h288v64h-288z" fill="#dadcde"/><path d="m56 376h64v64h-64z" fill="#d0d2d4"/><path d="m96 56-40 24s-.26 48 40 72c0 0 40-24.5 40-72z" fill="#6ed2f0"/><path d="m304 104h-112a8 8 0 0 1 0-16h112a8 8 0 0 1 0 16z" fill="#dadcde"/><path d="m304 136h-112a8 8 0 0 1 0-16h112a8 8 0 0 1 0 16z" fill="#dadcde"/><circle cx="392" cy="392" fill="#e9eef2" r="96"/><circle cx="360" cy="392" fill="#e9eef2" r="96"/><g fill="#ffd33a"><path d="m360 384a8 8 0 0 1 0-16h16a8 8 0 0 0 0-16h-8v-8a8 8 0 0 0 -16 0v9.376a24 24 0 0 0 8 46.624 8 8 0 0 1 0 16h-16a8 8 0 0 0 0 16h8v8a8 8 0 0 0 16 0v-9.376a24 24 0 0 0 -8-46.624z"/><path d="m392 288a105.5 105.5 0 0 0 -13.159.825l.115.912a104 104 0 1 0 -2.922 205.026 104 104 0 1 0 15.966-206.763zm-120 104a88 88 0 1 1 88 88 88.1 88.1 0 0 1 -88-88zm151.855 82.031a103.882 103.882 0 0 0 0-164.062 88 88 0 0 1 0 164.062z"/></g></svg>